<svg xmlns:dc="http://purl.org/dc/elements/1.1/" xmlns:cc="http://creativecommons.org/ns#" xmlns:rdf="http://www.w3.org/1999/02/22-rdf-syntax-ns#" xmlns:svg="http://www.w3.org/2000/svg" xmlns="http://www.w3.org/2000/svg" version="1.1" width="100" height="100" viewBox="0 0 100 100" id="Layer_1" xml:space="preserve"><metadata id="metadata9"><rdf:RDF><cc:Work rdf:about=""><dc:format>image/svg+xml</dc:format><dc:type rdf:resource="http://purl.org/dc/dcmitype/StillImage"/><dc:title/></cc:Work></rdf:RDF></metadata><defs id="defs7"/><path d="M 50.049018,5.8034515e-4 C 48.285161,-0.00291965 46.605388,0.82344435 45.23074,2.1637133 c -1.37456,1.340279 -2.526932,3.194618 -3.494278,5.556162 -1.93469,4.7230877 -3.132564,11.5091607 -3.132564,20.4666357 0,4.940035 -1.842977,9.737701 -4.369731,14.527046 -0.102978,0.195288 -0.205781,0.390726 -0.311065,0.585996 -0.05499,0.101727 -0.11087,0.202134 -0.166399,0.303854 -0.114421,0.210207 -0.230528,0.419199 -0.347254,0.629413 -0.04879,0.08692 -0.09597,0.173548 -0.144668,0.260446 -0.0088,0.01517 -0.02041,0.0282 -0.02927,0.04337 -0.32446,0.578091 -0.653531,1.157684 -0.991118,1.736299 -1.300762,2.229844 -2.679048,4.46729 -4.036934,6.720932 -0.31621,0.524776 -0.636146,1.050181 -0.947743,1.577139 -0.01951,0.03344 -0.03814,0.06785 -0.05766,0.10128 -0.105101,0.178061 -0.206755,0.35702 -0.311065,0.535357 -0.225382,0.383329 -0.452895,0.765405 -0.672778,1.150295 -0.385573,0.674685 -0.761477,1.353451 -1.1286,2.032925 -1.812996,3.35518 -3.347746,6.803963 -4.145412,10.396093 -0.06741,0.303455 -0.131628,0.605996 -0.188129,0.911554 -0.104937,0.56775 -0.195935,1.13927 -0.260419,1.714603 0,0.01686 -0.0088,0.0338 -0.0088,0.05065 -0.01242,0.113029 -0.01774,0.226678 -0.02926,0.340026 -0.01597,0.165946 -0.03105,0.332584 -0.04346,0.499186 0,0.0534 -0.01062,0.105715 -0.01419,0.15916 -0.04701,0.708265 -0.05943,1.420816 -0.03637,2.141438 0.183252,5.745397 2.776707,11.71869 8.862311,17.804302 4.994523,4.994524 12.736658,7.497488 20.531748,7.589079 1.607749,0.0189 3.220908,-0.06741 4.818279,-0.260446 0.05588,-0.0071 0.110693,-0.01472 0.166398,-0.02173 6.087112,-0.764944 11.911143,-3.106682 16.111371,-7.306927 6.04081,-6.040811 8.609518,-12.014327 8.782747,-17.768132 0.02218,-0.729013 0.01242,-1.453378 -0.03637,-2.17037 -0.01156,-0.166967 -0.02838,-0.332877 -0.04346,-0.499187 -0.01242,-0.142273 -0.02838,-0.285033 -0.04346,-0.426843 0,-0.03397 -0.01062,-0.06732 -0.01419,-0.10128 0,-0.01215 -0.0088,-0.02404 -0.0088,-0.03619 -0.06209,-0.545699 -0.140676,-1.088587 -0.238687,-1.627785 0,-0.02412 -0.0098,-0.04816 -0.01419,-0.07238 0,-0.01446 0,-0.02891 -0.0088,-0.04337 -0.05411,-0.287897 -0.117617,-0.574792 -0.180856,-0.860915 -0.796335,-3.603536 -2.319908,-7.066707 -4.123682,-10.439502 -0.274698,-0.513636 -0.553832,-1.022862 -0.839264,-1.53373 -0.07273,-0.129828 -0.14378,-0.260987 -0.217046,-0.390672 -0.248799,-0.441347 -0.50496,-0.884431 -0.759613,-1.323923 -0.114868,-0.19786 -0.231414,-0.395746 -0.347255,-0.593242 -0.218109,-0.372826 -0.437726,-0.742477 -0.658319,-1.114123 -1.454213,-2.449756 -2.9455,-4.877983 -4.340727,-7.292462 -0.07362,-0.127601 -0.14378,-0.255922 -0.217046,-0.383427 -0.266538,-0.464682 -0.538488,-0.925 -0.795802,-1.389044 -0.0088,-0.01121 -0.0088,-0.02502 -0.01419,-0.03619 -0.0816,-0.147372 -0.165423,-0.293992 -0.245961,-0.441311 -0.120808,-0.219306 -0.236647,-0.439084 -0.354528,-0.658346 -2.671243,-4.987924 -4.651792,-9.950569 -4.651792,-15.018995 0,-8.939203 -1.205502,-15.720362 -3.139838,-20.4449307 C 57.375383,5.3792123 56.228512,3.5215293 54.855459,2.1781103 53.482407,0.83468235 51.808311,0.00392335 50.044453,5.0034515e-4 z M 50.040218,3.7046813 c 0.633219,8.87e-4 1.354071,0.266052 2.228284,1.121362 0.874123,0.855311 1.824439,2.290275 2.655011,4.319049 1.661323,4.0575467 2.857688,10.4396697 2.857688,19.0414187 0,2.673079 -0.95271,4.47028 -2.37295,5.729788 -1.420151,1.25951 -3.394935,1.945647 -5.382491,1.960574 -1.987643,0.0149 -3.94318,-0.637218 -5.353575,-1.880993 -1.410393,-1.243766 -2.365676,-3.053729 -2.365765,-5.809369 0,-8.62074 1.196898,-15.008751 2.857688,-19.0631237 0.830395,-2.027186 1.775211,-3.453689 2.647827,-4.304582 0.872704,-0.850884 1.595064,-1.115357 2.228283,-1.114124 z M 59.32216,37.1791 c 0.994488,3.011553 2.386344,5.918371 3.950098,8.746611 -1.903646,2.475761 -4.005092,4.9856 -6.149376,7.531202 -1.627884,-1.854427 -3.263396,-3.698549 -4.832738,-5.534457 0.732915,-0.901416 1.449777,-1.811711 2.134263,-2.727443 1.9307,-2.583034 3.647548,-5.245656 4.897753,-8.015913 z m -18.607393,0.195332 c 1.142614,2.70007 2.723221,5.298404 4.608507,7.820581 0.683689,0.914791 1.395228,1.826941 2.126901,2.727443 -1.519404,1.777393 -3.09673,3.566256 -4.673523,5.360821 -2.096478,-2.436184 -4.158007,-4.848117 -6.026441,-7.22011 1.562069,-2.803432 2.961111,-5.689626 3.964556,-8.688735 z m 4.738716,1.360103 c 1.464324,0.578695 3.03757,0.858193 4.601146,0.846449 1.443745,-0.01085 2.891571,-0.266459 4.25398,-0.774107 -0.847426,1.385462 -1.806612,2.770675 -2.850504,4.167126 -0.508419,0.68021 -1.03857,1.366649 -1.584332,2.047383 -0.545762,-0.680734 -1.075913,-1.367173 -1.584333,-2.047383 -1.06172,-1.420338 -2.013189,-2.830466 -2.835957,-4.239468 z m 19.822693,10.649308 c 1.416692,2.364906 2.880661,4.682775 4.246707,6.974131 -1.04203,1.179043 -2.102687,2.369421 -3.175938,3.566655 -0.683511,0.762443 -1.367731,1.529907 -2.054613,2.3006 -1.008324,-1.403999 -2.096477,-2.792929 -3.226673,-4.167126 -0.485979,-0.590945 -0.98269,-1.177526 -1.483127,-1.765233 1.941788,-2.301442 3.875414,-4.600294 5.693644,-6.909027 z m -30.52993,0.115753 c 1.779647,2.210277 3.664667,4.415526 5.563435,6.619638 -0.550373,0.644732 -1.094362,1.290272 -1.627795,1.93887 -0.925302,1.125078 -1.821157,2.263391 -2.669558,3.407494 -0.900999,-0.987089 -1.804659,-1.966427 -2.698474,-2.930012 -0.835096,-0.900166 -1.666467,-1.788047 -2.481518,-2.669559 1.270961,-2.091572 2.609244,-4.20625 3.91391,-6.366431 z m 15.127527,1.309456 c 1.60216,1.863909 3.240422,3.703259 4.839922,5.527228 -1.515769,1.805494 -3.029231,3.61756 -4.478209,5.447639 -0.04346,0.05517 -0.08693,0.111177 -0.13021,0.16639 -0.04879,-0.06014 -0.09588,-0.120701 -0.144667,-0.180865 -1.5375,-1.895362 -3.139394,-3.773438 -4.745901,-5.642972 1.542289,-1.755147 3.117219,-3.525001 4.659065,-5.31742 z m -7.111578,8.153378 c 1.4747,1.717743 2.931485,3.433243 4.318995,5.143784 0.237357,0.292573 0.46886,0.583095 0.701782,0.875392 -1.40117,1.893332 -2.706457,3.801448 -3.855989,5.729789 -1.728113,-2.214082 -3.537828,-4.346642 -5.375306,-6.424316 0.918828,-1.283715 1.921297,-2.580922 2.987897,-3.877728 0.397813,-0.483735 0.810793,-0.961803 1.222621,-1.446921 z m 14.396828,0.209806 c 0.35027,0.414338 0.701783,0.82377 1.041763,1.237115 1.291185,1.569989 2.492961,3.130435 3.559382,4.680769 -1.727668,1.979573 -3.426333,3.990979 -5.056966,6.040882 -1.24994,-2.083289 -2.696169,-4.136251 -4.246706,-6.178338 0.22547,-0.289964 0.450322,-0.577906 0.680051,-0.868145 1.293047,-1.633081 2.647206,-3.272877 4.022476,-4.912283 z m -28.28719,0.04337 c 0.572994,0.613874 1.146607,1.224767 1.721815,1.844822 1.085937,1.170706 2.17542,2.35169 3.255502,3.544942 -1.435142,2.262938 -2.617847,4.585455 -3.378526,6.995845 -2.031108,-0.952524 -4.013874,-1.564509 -5.903417,-2.025679 0.695928,-3.109289 2.058958,-6.234811 3.7837,-9.426662 0.168705,-0.312192 0.345569,-0.620321 0.520926,-0.933268 z m 42.597183,0.549833 c 0.06209,0.114008 0.127193,0.226102 0.18813,0.340026 1.715429,3.207736 3.077393,6.352869 3.776426,9.4773 -1.956422,0.47915 -4.014671,1.118905 -6.120461,2.134202 -0.669053,-2.160696 -1.68128,-4.247762 -2.908336,-6.286852 0.895855,-1.014054 1.796322,-2.024872 2.698475,-3.031288 0.789505,-0.880653 1.580518,-1.758448 2.365766,-2.633388 z m -35.037055,7.748239 c 1.929014,2.212575 3.802947,4.477296 5.556072,6.807741 -0.772652,1.625079 -1.408974,3.265478 -1.873666,4.926747 -2.104638,-2.52819 -4.225241,-4.389492 -6.323049,-5.787664 0.536714,-1.958018 1.451107,-3.93987 2.640643,-5.946824 z m 13.709504,0.535357 c 1.55861,2.115752 2.951265,4.219627 4.102039,6.28685 -1.399929,1.899868 -2.715859,3.833558 -3.913909,5.809366 -1.215436,-2.130712 -2.549284,-4.191594 -3.97183,-6.185564 1.071566,-1.947008 2.358138,-3.921508 3.7837,-5.910652 z m 13.673316,0.347264 c 0.976037,1.763965 1.730773,3.505497 2.184909,5.230601 -1.902317,1.299779 -3.821397,2.99157 -5.729834,5.216137 -0.431252,-1.385861 -0.979941,-2.756342 -1.627794,-4.116479 1.637552,-2.131612 3.378614,-4.240488 5.172719,-6.330259 z m -39.739496,4.8327 c 1.869675,0.439155 3.723474,1.003553 5.599536,1.960565 -0.67943,5.55403 1.308303,11.436691 7.082663,17.211078 0.593836,0.59388 1.179246,1.150827 1.758004,1.671186 -2.611017,-1.075807 -4.90884,-2.521405 -6.670304,-4.282877 -5.615324,-5.615333 -7.625853,-10.557797 -7.777172,-15.301135 -0.01331,-0.41933 -0.0088,-0.839726 0.0088,-1.258817 z m 51.850209,0.0071 c 0.01774,0.43205 0.0275,0.863045 0.01419,1.294989 -0.143337,4.760625 -2.140738,9.693722 -7.704794,15.257734 -2.009641,2.009668 -4.565222,3.556933 -7.415459,4.63737 0.712781,-0.617724 1.429998,-1.292523 2.163179,-2.025679 5.724422,-5.724467 7.731314,-11.554717 7.104305,-17.066385 1.956245,-1.036405 3.890937,-1.638872 5.838312,-2.098029 z m -42.698476,4.27564 c 1.952343,1.576783 3.950454,3.725306 6.026442,6.728158 l 0.05056,-0.03619 c -0.07983,2.115566 0.185202,4.246689 0.853634,6.359203 -0.25636,-0.251043 -0.511545,-0.511534 -0.781366,-0.781318 -4.493466,-4.493474 -6.142193,-8.425186 -6.149378,-12.269854 z m 33.286325,0.238741 c -0.07185,3.642373 -1.638439,7.371382 -5.715376,11.589802 0.447041,-1.905536 0.578314,-3.823313 0.426906,-5.72256 1.815038,-2.53448 3.568163,-4.430265 5.28847,-5.867242 z M 44.50574,77.84453 c 1.343428,1.994382 2.585118,4.039272 3.682407,6.149401 -1.382366,2.726299 -2.511675,5.528834 -3.284506,8.428289 -2.11324,-3.71431 -2.351928,-7.34622 -1.475854,-11.177437 0.255453,-1.117228 0.621866,-2.253657 1.077953,-3.400253 z m 11.596973,0.332797 c 0.418834,1.044389 0.757662,2.077031 1.005663,3.096399 0.958476,3.940271 0.724047,7.657189 -1.540959,11.474045 -0.784893,-3.021877 -1.877125,-5.902654 -3.183211,-8.659792 1.105094,-1.990581 2.356718,-3.964007 3.718507,-5.910652 z m -5.867227,10.265871 c 0.918383,2.28387 1.659104,4.64419 2.177636,7.089892 -0.779482,0.252108 -1.61786,0.432636 -2.546622,0.557062 -0.684309,-0.09197 -1.318592,-0.215573 -1.91713,-0.376197 0.472586,-2.462155 1.26076,-4.88459 2.286116,-7.270757 z" id="path4131" style="font-size:medium;font-style:normal;font-variant:normal;font-weight:normal;font-stretch:normal;text-indent:0;text-align:start;text-decoration:none;line-height:normal;letter-spacing:normal;word-spacing:normal;text-transform:none;direction:ltr;block-progression:tb;writing-mode:lr-tb;text-anchor:start;baseline-shift:baseline;color:#000000;fill:#000000;fill-opacity:1;stroke:none;stroke-width:16;marker:none;visibility:visible;display:inline;overflow:visible;enable-background:accumulate;font-family:Sans;-inkscape-font-specification:Sans"/></svg>